PathFileType	4	(X/Y/Z)	C:/Users/opensim2020/Desktop/walking_exp_matlab/subject01_walking04_straight_02.trc																																																																																																																															
DataRate	CameraRate	NumFrames	NumMarkers	Units	OrigDataRate	OrigDataStartFrame	OrigNumFrames																																																																																																																											
100	100	7	43	mm	100	1483	261																																																																																																																											
Frame#	Time	LFHD			RFHD			LBHD			RBHD			C7			T10			CLAV			STRN			RBAK			LSHO			LUPA			LELB			LFRM			LWRA			LWRB			LFIN			RSHO			RUPA			RELB			RFRM			RWRA			RWRB			RFIN			LASI			RASI			LPSI			RPSI			LTHI			LKNE			LTIB			LANK			LHEE			LTOE			RTHI			RKNE			RTIB			RANK			RHEE			RTOE			*39			*40			*41			*42		
		X1	Y1	Z1	X2	Y2	Z2	X3	Y3	Z3	X4	Y4	Z4	X5	Y5	Z5	X6	Y6	Z6	X7	Y7	Z7	X8	Y8	Z8	X9	Y9	Z9	X10	Y10	Z10	X11	Y11	Z11	X12	Y12	Z12	X13	Y13	Z13	X14	Y14	Z14	X15	Y15	Z15	X16	Y16	Z16	X17	Y17	Z17	X18	Y18	Z18	X19	Y19	Z19	X20	Y20	Z20	X21	Y21	Z21	X22	Y22	Z22	X23	Y23	Z23	X24	Y24	Z24	X25	Y25	Z25	X26	Y26	Z26	X27	Y27	Z27	X28	Y28	Z28	X29	Y29	Z29	X30	Y30	Z30	X31	Y31	Z31	X32	Y32	Z32	X33	Y33	Z33	X34	Y34	Z34	X35	Y35	Z35	X36	Y36	Z36	X37	Y37	Z37	X38	Y38	Z38	X39	Y39	Z39	X40	Y40	Z40	X41	Y41	Z41	X42	Y42	Z42	X43	Y43	Z43
																																																																																																																																		
66	0.65	-1146.26013	1658.43555	-1471.05994	-1122.92627	1664.88818	-1359.36316	-1261.48999	1612.73547	-1451.55652	-1240.99084	1619.03455	-1333.63733	-1302.34497	1424.27271	-1409.9187	-1341.57397	1131.58667	-1397.24353	-1160.55884	1352.78882	-1412.96484	-1118.54004	1198.50513	-1412.73059	-1358.41687	1232.89795	-1326.64331	-1225.24561	1377.83386	-1573.5791	-1282.46436	1195.15503	-1649.42822	-1321.68115	1050.99292	-1641.04541	-1310.06433	936.92804	-1660.49243	-1265.75977	806.08466	-1631.75952	-1318.19263	814.87689	-1662.1582	-1292.90417	731.3114	-1657.61255	-1217.93591	1385.37329	-1260.28455	-1264.0304	1190.46924	-1146.72876	-1253.99402	1063.38293	-1132.75403	-1178.89453	963.63434	-1110.25977	-1058.91248	893.8927	-1145.13672	-1092.42493	876.91754	-1101.08337	-1025.90894	825.08618	-1110.12036	-1163.91736	923.43286	-1498.42285	-1173.91003	919.52582	-1279.80151	-1353.88574	938.73163	-1459.98718	-1358.47913	947.08057	-1315.99268	-1125.22449	608.86792	-1563.53003	-1099.92944	480.00763	-1549.48621	-1106.87988	291.45914	-1560.05762	-1064.62439	74.67347	-1519.69214	-1098.12415	40.28075	-1463.14209	-916.02777	60.09077	-1530.27063	-1302.65698	600.03833	-1237.0907	-1338.71594	442.05844	-1263.6145	-1456.40662	309.60028	-1261.00146	-1566.59717	133.06618	-1307.40845	-1627.20862	120.95395	-1355.01807	-1455.79736	42.36139	-1319.81458	-1136.87341	1698.36157	-1380.95569	-1973.09875	1023.78204	3102.05737	-2012.53308	1022.05219	3140.64868	NaN	NaN	NaN
67	0.66	-1136.005	1658.84912	-1474.01563	-1113.42102	1665.12024	-1362.3114	-1251.28027	1613.07458	-1455.36438	-1231.49109	1619.09937	-1337.34534	-1292.17188	1424.32556	-1414.03748	-1330.80176	1131.50586	-1399.51746	-1150.64258	1352.98425	-1416.14551	-1107.85034	1198.89551	-1415.41211	-1348.38782	1232.35559	-1330.82361	-1214.73633	1376.90076	-1577.20422	-1270.18994	1193.5813	-1652.92078	-1308.48633	1049.07593	-1644.66895	-1295.87598	935.05255	-1664.09631	-1250.36267	804.6698	-1635.37549	-1302.86682	812.92389	-1665.71436	-1276.52258	729.97394	-1661.70837	-1208.82751	1385.37488	-1263.57068	-1255.63098	1190.39307	-1150.49707	-1245.69556	1063.271	-1136.21387	-1171.3877	963.07672	-1112.87439	-1051.97888	892.15619	-1147.14453	-1085.63135	875.64392	-1102.69824	-1019.29181	823.6828	-1111.48022	-1152.23132	923.21118	-1500.1333	-1162.06567	919.17102	-1281.75549	-1342.19458	938.62762	-1461.98413	-1346.93469	946.21405	-1317.69653	-1113.00269	610.1153	-1565.46643	-1088.27612	480.9151	-1551.35852	-1098.12378	292.78091	-1560.91565	-1060.7926	74.10553	-1520.57898	-1096.16138	41.49739	-1464.26233	-912.81769	55.4522	-1529.57434	-1289.802	598.98676	-1238.59888	-1325.49854	440.77213	-1264.75952	-1447.24341	311.79523	-1261.92651	-1561.86487	137.994	-1307.53308	-1622.23413	128.14088	-1355.3468	-1455.10986	42.4479	-1319.88171	-1127.38232	1698.56885	-1383.78564	-1973.21838	1023.42065	3101.90918	-2012.56128	1022.04602	3140.75098	NaN	NaN	NaN
68	0.67	-1125.69958	1659.31616	-1477.20374	-1103.47986	1665.55151	-1365.41321	-1240.99866	1613.59058	-1459.14648	-1221.76697	1619.41309	-1341.03821	-1281.75208	1424.7002	-1418.00867	-1320.01599	1131.66687	-1401.76904	-1140.53308	1353.48267	-1419.31653	-1097.11731	1199.56116	-1418.20935	-1338.34448	1232.22742	-1334.79187	-1204.27759	1376.22778	-1580.76941	-1257.67163	1192.25745	-1656.22473	-1294.97278	1047.38318	-1648.26208	-1281.34436	933.63959	-1668.02466	-1234.56116	803.53601	-1639.11096	-1286.95105	811.29028	-1669.49634	-1259.77966	728.86652	-1665.92786	-1199.55164	1385.94812	-1266.96313	-1247.35559	1190.67529	-1154.25342	-1237.70288	1063.56335	-1139.77356	-1164.13062	962.7597	-1115.6394	-1045.36353	890.55908	-1148.89148	-1079.35339	874.83148	-1104.37573	-1013.40485	822.32483	-1112.72253	-1140.51746	923.28845	-1501.76758	-1150.68982	919.00983	-1283.56396	-1330.56458	939.21545	-1463.72656	-1335.37817	945.57843	-1319.14758	-1102.22888	611.40118	-1568.75818	-1076.69006	482.58563	-1552.69336	-1088.44629	294.26688	-1563.20398	-1058.17737	74.29887	-1521.29553	-1094.82544	42.40536	-1465.2627	-910.50537	50.85108	-1528.47473	-1275.92297	598.05176	-1240.26208	-1311.5166	439.89996	-1265.16248	-1436.94897	314.31793	-1263.01501	-1556.09448	143.45581	-1307.97424	-1616.06226	136.12012	-1356.2804	-1454.05835	42.5612	-1320.13794	-1117.48364	1699.0199	-1386.72498	-1973.13562	1023.34204	3101.86743	-2012.57776	1022.01672	3140.71606	NaN	NaN	NaN
69	0.68	-1115.35583	1659.75085	-1480.45862	-1093.72852	1665.91638	-1368.50952	-1230.72424	1614.1178	-1462.9856	-1212.10974	1619.96326	-1344.84229	-1271.33362	1425.0708	-1421.72327	-1309.26038	1131.93164	-1403.83923	-1130.38391	1354.11987	-1422.49683	-1086.32617	1200.43774	-1420.94702	-1328.15735	1232.41223	-1338.4502	-1193.89319	1375.85828	-1584.15356	-1245.03833	1191.26685	-1659.48303	-1281.18445	1045.99365	-1651.7926	-1266.29883	932.27759	-1671.48914	-1218.26758	802.81018	-1643.07886	-1270.78674	810.10773	-1673.54919	-1242.72095	728.2157	-1670.35718	-1190.02441	1386.97437	-1270.1521	-1239.19336	1191.25464	-1158.2196	-1229.68555	1064.3324	-1143.38428	-1157.10645	962.89014	-1118.41992	-1039.05676	889.18896	-1150.54602	-1073.50232	873.83063	-1106.22791	-1008.01129	820.77039	-1113.79492	-1128.91809	923.85815	-1503.31482	-1139.02966	919.44098	-1285.68274	-1319.1062	940.1189	-1465.18945	-1323.69775	945.29694	-1320.52441	-1092.36938	612.76819	-1572.18713	-1065.55298	484.17761	-1553.85022	-1079.09924	295.30209	-1566.0415	-1056.47363	74.60937	-1521.25171	-1093.80444	42.9033	-1465.40076	-908.60358	48.0345	-1528.10022	-1261.42053	597.37842	-1241.72546	-1295.91626	439.14035	-1265.46448	-1425.73083	317.43036	-1263.75854	-1549.05273	149.72096	-1308.75012	-1608.18982	144.91908	-1357.81384	-1452.9801	42.86948	-1320.04248	-1107.29248	1699.60205	-1389.98364	-1973.04773	1023.32739	3101.83716	-2012.64832	1022.0426	3140.42651	NaN	NaN	NaN
70	0.69	-1105.02563	1660.22791	-1483.80334	-1083.83325	1666.55273	-1371.83789	-1220.40381	1614.56641	-1466.77917	-1202.34558	1620.54492	-1348.54089	-1261.35303	1425.5387	-1425.47766	-1298.63892	1132.33838	-1405.95496	-1120.06653	1354.94055	-1425.7229	-1075.57751	1201.40308	-1423.69324	-1317.90979	1232.84131	-1341.76465	-1183.58215	1375.75635	-1587.41418	-1232.38257	1190.66479	-1662.69177	-1267.22314	1044.9696	-1655.31409	-1251.19116	931.73102	-1675.45569	-1201.63013	802.466	-1647.15149	-1254.15918	809.27502	-1677.56873	-1225.104	727.74432	-1674.68787	-1180.35364	1388.02734	-1273.30664	-1231.01184	1192.14343	-1162.1925	-1221.6322	1065.4707	-1146.98865	-1150.30237	963.3371	-1121.35547	-1033.36804	887.86383	-1152.59705	-1068.17236	873.21527	-1108.21179	-1003.2973	819.62933	-1114.86804	-1117.48022	925.19379	-1505.24548	-1127.58875	919.76373	-1287.91577	-1307.77478	941.16821	-1466.51221	-1312.03345	945.39703	-1321.80737	-1082.63647	613.84589	-1574.21484	-1054.99976	484.80133	-1554.89307	-1070.43518	295.50546	-1568.91626	-1055.01306	74.66072	-1520.79187	-1093.33569	43.57715	-1465.55005	-907.35083	46.24701	-1527.87109	-1246.06494	596.68958	-1242.91052	-1279.19727	438.06003	-1264.98889	-1412.66101	320.32907	-1264.5647	-1540.37292	156.30922	-1309.88562	-1598.3584	154.21989	-1360.00818	-1451.66394	42.92614	-1320.41248	-1097.21155	1700.2395	-1393.36096	-1973.10669	1023.73846	3101.97314	-2012.54932	1022.06342	3140.57056	NaN	NaN	NaN
71	0.7	-1094.74329	1660.77148	-1487.18079	-1074.10596	1667.23267	-1375.17542	-1210.10974	1615.05237	-1470.53564	-1192.66553	1621.28381	-1352.30212	-1251.51526	1425.91406	-1429.04492	-1287.9823	1132.86719	-1408.11743	-1109.94421	1355.67749	-1428.69202	-1064.91125	1202.42871	-1426.26538	-1307.60632	1233.49573	-1344.7843	-1173.3446	1375.84473	-1590.5238	-1219.76746	1190.26257	-1665.67932	-1253.05981	1044.28857	-1658.86841	-1235.64075	931.37653	-1679.20496	-1184.58813	802.54303	-1651.27734	-1237.31848	808.89349	-1681.72021	-1207.23975	727.81952	-1679.30615	-1170.50623	1389.25208	-1276.47559	-1222.80176	1193.28064	-1166.11548	-1213.67468	1066.89233	-1150.50769	-1143.79321	964.05463	-1124.24231	-1027.8833	886.64252	-1154.36157	-1063.13525	872.36017	-1110.4126	-999.05646	818.28772	-1116.00366	-1106.28564	926.68353	-1507.29858	-1116.54053	920.36176	-1290.41675	-1296.68787	942.22601	-1467.77673	-1300.36841	945.77441	-1323.17017	-1072.50525	614.46796	-1575.36462	-1045.34546	484.39963	-1555.81274	-1063.21179	294.90717	-1570.60876	-1053.68347	74.92222	-1520.66821	-1092.86719	43.91407	-1465.73462	-906.2384	44.84826	-1527.22498	-1230.22461	596.07739	-1243.77698	-1261.37183	437.022	-1264.09558	-1398.20471	323.01306	-1265.35266	-1530.02563	162.81413	-1311.20483	-1586.61157	163.8367	-1362.86011	-1450.17786	42.86614	-1320.88232	-1087.30286	1700.90125	-1396.78796	-1973.16907	1023.7655	3101.79956	-2012.64124	1022.07513	3140.6665	NaN	NaN	NaN
72	0.71	-1084.40295	1661.302	-1490.54675	-1064.23364	1668.0531	-1378.46777	-1199.8783	1615.69617	-1474.39978	-1182.86536	1622.08362	-1355.92932	-1241.65259	1426.3634	-1432.49902	-1277.35632	1133.40247	-1410.40149	-1099.7406	1356.66089	-1431.80688	-1054.35583	1203.3988	-1428.71301	-1297.30969	1234.2832	-1347.45471	-1163.18494	1376.23035	-1593.61829	-1207.24377	1190.22461	-1668.64539	-1238.7041	1043.90588	-1662.5011	-1219.81311	931.30383	-1682.96667	-1167.24927	803.06879	-1655.39502	-1219.95825	808.87775	-1685.8313	-1188.87537	727.9917	-1683.72131	-1160.61694	1390.39075	-1279.7887	-1214.41748	1194.66956	-1169.67261	-1205.86487	1068.60352	-1153.91724	-1137.39893	964.94214	-1127.12109	-1022.80023	885.51672	-1156.39282	-1058.79016	871.99261	-1112.54749	-995.07568	816.93622	-1117.24707	-1095.38452	928.33813	-1509.75049	-1104.78662	921.44348	-1292.96484	-1285.91821	943.4057	-1469.20703	-1288.86304	946.32599	-1324.52563	-1062.47888	614.37402	-1576.72668	-1036.70886	483.36676	-1556.92981	-1057.20032	294.0614	-1571.31799	-1052.43726	74.71491	-1520.44763	-1092.56543	43.98171	-1465.74097	-904.80432	43.59034	-1526.14246	-1213.60205	595.11584	-1244.58777	-1242.34412	435.70795	-1263.27087	-1382.74329	325.84192	-1266.10547	-1518.39673	169.27596	-1312.5603	-1572.81311	173.48795	-1365.95764	-1448.6145	42.95267	-1321.69922	-1077.50793	1701.63037	-1400.30103	-1973.17542	1023.31616	3101.86035	-2012.56641	1021.99921	3140.60303	NaN	NaN	NaN
